<?xml version="1.0" encoding="UTF-8"?>
<svg xmlns="http://www.w3.org/2000/svg" version="1.1" xmlns:xlink="http://www.w3.org/1999/xlink" viewBox="0 0 125 135">
  <defs>
    <style>
      .cls-1 {
        fill: url(#linear-gradient);
      }
    </style>
    <linearGradient id="linear-gradient" x1="105.5" y1="68.5" x2="24.9" y2="68.5" gradientTransform="translate(0 136) scale(1 -1)" gradientUnits="userSpaceOnUse">
      <stop offset="0" stop-color="#23a7e0"/>
      <stop offset="1" stop-color="#6d68af"/>
    </linearGradient>
  </defs>
  <!-- Generator: Adobe Illustrator 28.7.3, SVG Export Plug-In . SVG Version: 1.2.0 Build 164)  -->
  <g>
    <g id="Layer_1">
      <path class="cls-1" d="M101.2,87.3c-7.4,0-14.1,3.4-18.4,8.8l-36-22.5c.5-2,.8-4,.8-6.2s-.3-4.1-.8-6l35.9-22.6c4.4,5.4,11,8.8,18.5,8.8,13.1,0,23.8-10.7,23.8-23.9S114.3,0,101.2,0s-23.8,10.7-23.8,23.9,0,2.3.2,3.4l-37,23.3c-4.3-4.3-10.3-7-16.8-7-13.1,0-23.8,10.7-23.8,23.9s10.7,23.9,23.8,23.9,12.4-2.6,16.7-6.9l37.1,23.2c-.2,1.1-.3,2.3-.3,3.5,0,13.2,10.7,23.9,23.8,23.9s23.8-10.7,23.8-23.9c0-13.2-10.7-23.9-23.8-23.9ZM101.9,11.4c6.8,0,12.2,5.5,12.2,12.2s-5.5,12.2-12.2,12.2-12.2-5.5-12.2-12.2c0-6.8,5.5-12.2,12.2-12.2ZM24,79.7c-6.8,0-12.2-5.5-12.2-12.2s5.5-12.2,12.2-12.2,12.2,5.5,12.2,12.2c0,6.8-5.5,12.2-12.2,12.2ZM101.9,123.6c-6.8,0-12.2-5.5-12.2-12.2s5.5-12.2,12.2-12.2,12.2,5.5,12.2,12.2-5.5,12.2-12.2,12.2Z"/>
    </g>
  </g>
</svg>