<?xml version="1.0" encoding="UTF-8"?>
<svg xmlns="http://www.w3.org/2000/svg" version="1.1" xmlns:cc="http://creativecommons.org/ns#" xmlns:dc="http://purl.org/dc/elements/1.1/" xmlns:rdf="http://www.w3.org/1999/02/22-rdf-syntax-ns#" xmlns:svg="http://www.w3.org/2000/svg" xmlns:xlink="http://www.w3.org/1999/xlink" viewBox="0 0 514.3 137.1">
  <defs>
    <style>
      .cls-1 {
        fill: url(#linear-gradient-2);
      }

      .cls-2 {
        fill: url(#linear-gradient-3);
      }

      .cls-3 {
        fill: url(#linear-gradient);
      }
    </style>
    <linearGradient id="linear-gradient" x1="238.8" y1="104.6" x2="141" y2="104.6" gradientTransform="translate(0 140) scale(1 -1)" gradientUnits="userSpaceOnUse">
      <stop offset="0" stop-color="#0ca8e5"/>
      <stop offset="1" stop-color="#7a67f4"/>
    </linearGradient>
    <linearGradient id="linear-gradient-2" x1="487.5" y1="39.6" x2="150.6" y2="39.6" gradientTransform="translate(0 140) scale(1 -1)" gradientUnits="userSpaceOnUse">
      <stop offset="0" stop-color="#0ca8e5"/>
      <stop offset="1" stop-color="#7a67f4"/>
    </linearGradient>
    <linearGradient id="linear-gradient-3" x1="107.3" y1="71.4" x2="26.2" y2="71.4" gradientTransform="translate(0 140) scale(1 -1)" gradientUnits="userSpaceOnUse">
      <stop offset="0" stop-color="#0ca8e5"/>
      <stop offset="1" stop-color="#7a67f4"/>
    </linearGradient>
  </defs>
  <!-- Generator: Adobe Illustrator 28.7.3, SVG Export Plug-In . SVG Version: 1.2.0 Build 164)  -->
  <g>
    <g id="svg352807">
      <g>
        <path class="cls-3" d="M174.7,41.1l-13.9-29.3c-.9-1.8-2.7-3-4.7-3s-3.8,1.2-4.7,3l-21.1,44.2c-1.2,2.6,0,5.7,2.5,6.9,2.6,1.2,5.6,0,6.9-2.5l4.9-10.3h26.2c1.8,0,3.4-.9,4.3-2.3,1.8-2.7.4-4.9-.5-6.7ZM148.9,41.3l7.2-15.3,7.3,15.3h-14.6ZM182.3,58.2c0,2.8-2.3,5.1-5.2,5.1s-5.1-2.3-5.1-5.1,2.3-5.2,5.1-5.2,5.2,2.3,5.2,5.2ZM192.1,12.6c0-2.8,2.3-5.1,5.1-5.1s5.2,2.3,5.2,5.1-2.3,5.2-5.2,5.2c-2.8,0-5.1-2.3-5.1-5.2ZM192.1,58.2v-30.2c0-2.8,2.3-5.1,5.1-5.1s5.2,2.3,5.2,5.1v30.2c0,2.8-2.3,5.1-5.2,5.1s-5.1-2.3-5.1-5.1ZM256.8,26.2c0-10.6-7.3-17.4-18.4-17.4h-16.8c-2.8,0-5.1,2.3-5.1,5.1v44.3c0,2.8,2.3,5.1,5.1,5.1s5.2-2.3,5.2-5.1v-14h11.3l2.3,3.7c1.5,2.4,4.7,3.1,7.1,1.6,4.8-3,.9-8,.9-8,5.4-3,8.3-8.6,8.3-15.3ZM238.2,35.2h-11.3v-16.4h11.5c5.4,0,8,3.2,8,8s-2.1,8.4-8.3,8.4ZM253.3,63.3c-2.8,0-5.1-2.3-5.1-5.1s2.3-5.2,5.1-5.2,5.1,2.3,5.1,5.2-2.3,5.1-5.1,5.1Z"/>
        <path class="cls-1" d="M156.7,122.8c0,2.8-2.3,5.1-5.1,5.1s-5.1-2.3-5.1-5.1v-39.1h-11.3c-2.8,0-5.1-2.3-5.1-5.2s2.3-5.1,5.1-5.1h16.4c3.1,0,5.1,2.3,5.1,5.1v44.3h0ZM173.1,78.5c0,2.9-2.3,5.2-5.1,5.2s-5.2-2.3-5.2-5.2,2.3-5.1,5.2-5.1c2.8,0,5.1,2.3,5.1,5.1ZM203.8,129.4c-15.8,0-28.7-12.9-28.7-28.8s4.1-17,11.1-22.5c2.2-1.7,5.5-1.3,7.2.9,1.7,2.2,1.3,5.5-.9,7.2-4.4,3.5-7,8.7-7,14.3,0,10.1,8.2,18.4,18.3,18.4s18.4-8.3,18.4-18.4-2.6-10.8-7.1-14.3c-2.3-1.8-2.7-5.1-.9-7.2,1.7-2.3,5-2.6,7.2-.9,7,5.5,11.1,13.6,11.1,22.5,0,15.9-12.9,28.8-28.8,28.8ZM203.8,72c2.9,0,5.2,2.3,5.2,5.2s-2.3,5.1-5.2,5.1-5.1-2.3-5.1-5.1c0-2.9,2.3-5.2,5.1-5.2ZM263.5,119.1c0,2.9-2.3,5.1-5.2,5.1s-5.1-2.3-5.1-5.1,2.3-5.1,5.1-5.1,5.2,2.3,5.2,5.1ZM276.3,131.5c-4.1,0-9.5-1.6-9.5-5.5s2.2-5.1,4.8-4.9c2.7.2,5.5,1.1,8.3-.2,2.2-1,3.8-3,3.8-5.7s-3.7-5.4-11.6-8.3c-7.2-2.6-17.9-5.8-18-16.5,0-4.1,1.6-7.9,4.4-10.8,2.5-2.5,7.1-5.5,15.1-5.5s15.2,4.8,17.2,7.7c1.4,1.9,1.2,4.4-.2,6.2-1.9,2.3-4.7,2.1-6.6.4-1.4-1.2-4.7-4.5-10.7-4.5s-8.9,2.7-8.9,6.5,2.7,4.6,10.8,7.7c10,3.8,18.8,8,18.8,17.6,0,7.7-5.4,15.7-17.8,15.7ZM306.5,80.7c0-2.8,2.3-5.1,5.1-5.1s5.2,2.3,5.2,5.1v17.9h22.5v-2.4c0-2.8,2.3-5.1,5.2-5.1s5.1,2.3,5.1,5.1v28.8c0,2.8-2.3,5.1-5.1,5.1s-5.2-2.3-5.2-5.1v-16.6h-22.5v16.6c0,2.8-2.3,5.1-5.2,5.1s-5.1-2.3-5.1-5.1v-44.3ZM339.3,80.7c0-2.8,2.3-5.1,5.2-5.1s5.1,2.3,5.1,5.1-2.3,5.2-5.1,5.2c-2.9,0-5.2-2.3-5.2-5.2ZM404.3,107.8l-13.9-29.3c-.9-1.8-2.7-3-4.7-3s-3.8,1.2-4.7,3l-21,44.2c-1.2,2.6,0,5.7,2.5,6.9,2.6,1.2,5.6,0,6.9-2.5l4.9-10.3h26.2c1.8,0,3.4-.9,4.3-2.3,1.8-2.6.4-4.9-.5-6.7ZM378.5,108l7.3-15.3,7.3,15.3h-14.6ZM412,118.7c0,2.8-2.3,5.1-5.2,5.1s-5.1-2.3-5.1-5.1,2.3-5.2,5.1-5.2c2.9,0,5.2,2.3,5.2,5.2ZM461.2,92.9c0-10.6-7.3-17.4-18.4-17.4h-16.8c-2.8,0-5.1,2.3-5.1,5.1v44.3c0,2.8,2.3,5.1,5.1,5.1s5.2-2.3,5.2-5.1v-14h11.3l2.3,3.7c1.5,2.4,4.7,3.1,7.1,1.6,4.8-3,.9-8,.9-8,5.4-3,8.3-8.6,8.3-15.3ZM442.5,102h-11.3v-16.4h11.5c5.4,0,8,3.2,8,8,0,4.4-2.1,8.4-8.3,8.4ZM457.7,123.8c-2.8,0-5.1-2.3-5.1-5.1s2.3-5.2,5.1-5.2,5.1,2.3,5.1,5.2-2.3,5.1-5.1,5.1ZM478.5,130.1c-2.8,0-5.1-2.3-5.1-5.1v-44.3c0-2.8,2.3-5.1,5.1-5.1h10.8c2.8,0,5.1,2.3,5.1,5.1s-2.3,5.2-5.1,5.2h-5.5v11.9h18.1c2.9,0,5.1,2.1,5.1,5s-2.3,4.9-5.1,4.9h-18.1v12h21.3c2.9,0,5.1,2.3,5.1,5.2s-2.3,5.1-5.1,5.1h-26.5ZM504.8,79.7c-2.9,0-5.2-2.3-5.2-5.2s2.3-5.1,5.2-5.1,5.1,2.3,5.1,5.1-2.3,5.2-5.1,5.2Z"/>
        <path class="cls-2" d="M103,88.4c-7.5,0-14.2,3.4-18.6,8.8l-36.2-22.6c.5-2,.8-4,.8-6.2s-.3-4.1-.8-6l36.1-22.7c4.4,5.4,11.1,8.9,18.6,8.9,13.2,0,24-10.7,24-24S116.2.8,103,.8s-24,10.7-24,24,0,2.3.2,3.4l-37.3,23.4c-4.3-4.3-10.3-7-16.9-7-13.2,0-24,10.7-24,24s10.7,24,24,24,12.5-2.6,16.8-6.9l37.4,23.3c-.2,1.1-.3,2.3-.3,3.5,0,13.2,10.8,24,24,24s24-10.7,24-24c0-13.2-10.7-24-24-24ZM103,12.5c6.8,0,12.2,5.5,12.2,12.2s-5.5,12.2-12.2,12.2-12.2-5.5-12.2-12.2c0-6.8,5.5-12.2,12.2-12.2ZM25.1,80.7c-6.8,0-12.2-5.5-12.2-12.2s5.5-12.2,12.2-12.2,12.2,5.5,12.2,12.2c0,6.8-5.5,12.2-12.2,12.2ZM103,124.6c-6.8,0-12.2-5.5-12.2-12.2s5.5-12.2,12.2-12.2,12.2,5.5,12.2,12.2-5.5,12.2-12.2,12.2Z"/>
      </g>
    </g>
  </g>
</svg>